<svg version="1.1" id="Layer_1" xmlns="http://www.w3.org/2000/svg" x="0" y="0" width="20" height="20" xml:space="preserve"><path fill="none" stroke="#D2D8D8" stroke-width="2" stroke-linecap="round" stroke-linejoin="round" stroke-miterlimit="10" d="M10 1h0c2.3 0 4 1.9 4 4.1v1.7c0 2.3-1.8 4.2-4 4.2h0c-2.2 0-4-1.9-4-4.1V5.1C6 2.9 7.8 1 10 1z"/><path fill="none" stroke="#D2D8D8" stroke-width="2" stroke-linecap="round" stroke-linejoin="round" stroke-miterlimit="10" d="M13.7 9c1.9 0 3.6 1.4 4 3.3l.4 1.9c.5 2.5-1.4 4.8-4 4.8H6c-2.6 0-4.5-2.3-4-4.8l.4-1.9c.4-1.9 2-3.3 4-3.3"/></svg>